<svg id="Layer_1" data-name="Layer 1" xmlns="http://www.w3.org/2000/svg" viewBox="0 0 87.27 43.39"><title>logo</title><path d="M61.05,55.64a44.82,44.82,0,0,0,.05,4.92c.15,1.43,1.35,1.93,2.66,2.17,2.74.5,4.69,2,5.31,4.78A11.19,11.19,0,0,1,69,71.15c-.1.87-.83,1-1.58.89s-.8-.63-.8-1.21c0-1,0-1.89,0-2.83a2.36,2.36,0,0,0-1.64-2.41c-1.35-.46-2.7-1-4.08-1.3a4.23,4.23,0,0,0-5,2.57,10.73,10.73,0,0,0-.76,3.48c-.13,1.45,0,2.92,0,4.39,0,.82-.3,1.28-1.21,1.26s-1.21-.44-1.19-1.28c.07-2.15,0-4.31.2-6.43a7.38,7.38,0,0,1,4.4-5.93c1.38-.7,1.39-.79,1.32-2.32-.08-1.82,0-3.65,0-5.47a6,6,0,0,0-1.33-3.88,5.89,5.89,0,0,0-3,4.43c-.06.62,0,1.25-.09,1.85a5.54,5.54,0,0,1-5,4.38,8.2,8.2,0,0,0-3.35,1.11c-.73.47-1,1.57-1.58,2.35-.29.41-.64,1-1.06,1.07-1.13.29-1.57-.25-1.31-1.38a6.49,6.49,0,0,1,5.73-5.33,15.36,15.36,0,0,0,1.91-.38,3.49,3.49,0,0,0,2.46-3.19c0-.86-.27-1.09-1.1-1-1.84.15-3.69.22-5.53.34a23.7,23.7,0,0,0-3.78.3c-2.82.64-4.26,2.87-4.14,6.11,0,1.2-.32,1.59-1.48,1.35-.36-.07-.91-.59-.89-.88a32.44,32.44,0,0,1,.51-4.72,4.93,4.93,0,0,1,2.38-2.93c2.63-1.82,5.58-1.44,8.48-1.59a21.31,21.31,0,0,0,4.8-.6,6.93,6.93,0,0,0,5-7V34c0-1.33,0-1.33,1.28-1.34,1.67,0,1.67,0,1.67,1.71,0,3.9,0,7.81,0,11.71a13.41,13.41,0,0,0,.39,3.09c.84,3.37,3.27,5.3,7,5.57,1.85.13,3.71.16,5.56.2,4,.09,6.52,3.33,7.32,6.35.18.69,0,1.24-.75,1.43S77.3,62.8,77,62l-.21-.65a5.27,5.27,0,0,0-5.38-4.11c-2.21-.11-4.42-.11-6.61-.38A21.7,21.7,0,0,1,61.05,55.64Z" transform="translate(-5.68 -32.6)"/><path d="M53.11,48.61c-1.26,0-2.24.06-3.2,0a1.77,1.77,0,0,1-1-.6c-1.22-1.34-2.4-2.73-3.6-4.09a3.21,3.21,0,0,0-3-.55,1.24,1.24,0,0,0-.4.89c0,1.13,0,2.27,0,3.41,0,.71-.26,1-1,1-2,0-2,.06-2-2,0-4.29,0-8.58,0-12.87,0-.87.23-1.2,1.16-1.18,2.34.07,4.68,0,7,.06a5.3,5.3,0,0,1,4.67,7.7,4.36,4.36,0,0,1-2.35,2.22c-.92.39-1,.58-.31,1.32,1.11,1.27,2.24,2.53,3.35,3.79C52.56,47.93,52.75,48.17,53.11,48.61ZM44.64,35.37v0h-2c-.61,0-.88.28-.87.89,0,1.14,0,2.27,0,3.4,0,.57.27.87.82.87,1.45,0,2.92,0,4.36-.11A2.3,2.3,0,0,0,49.15,38a2.36,2.36,0,0,0-2.09-2.51C46.26,35.38,45.45,35.41,44.64,35.37Z" transform="translate(-5.68 -32.6)"/><path d="M81,40.6c0-2.24,0-4.49,0-6.73,0-.93.35-1.27,1.28-1.26,3.15,0,6.31,0,9.47,0,1.15,0,1.21.1,1.2,1.56,0,1.24-.08,1.33-1.21,1.34-2.19,0-4.37,0-6.55,0-.83,0-1.16.32-1.15,1.16,0,2.74-.29,2.54,2.5,2.54,1.66,0,3.32,0,5,0,1.07,0,1.16.2,1.18,1.54,0,.83-.24,1.27-1.17,1.25-2.05,0-4.1,0-6.15,0-1.18,0-1.34.14-1.33,1.27,0,2.32-.42,2.42,2.36,2.4,1.82,0,3.65,0,5.47,0,.8,0,1.15.3,1.08,1.1,0,.32,0,.65,0,1a.81.81,0,0,1-.92.89H82c-.77,0-1-.49-1-1.17C81,45.16,81,42.88,81,40.6Z" transform="translate(-5.68 -32.6)"/><path d="M34.86,40.65c0,2.28,0,4.56,0,6.84,0,.82-.22,1.16-1.1,1.14-1.89,0-1.89,0-1.89-1.91,0-1.17,0-2.34,0-3.51,0-.72-.19-1.07-1-1.06q-2.92.08-5.85,0c-.79,0-1,.3-1,1,0,1.43,0,2.86,0,4.29,0,.83-.25,1.17-1.13,1.15-2.11-.06-1.92.17-1.92-1.87,0-4.29,0-8.59,0-12.88,0-.9.21-1.29,1.19-1.25,1.86.06,1.87,0,1.87,1.86,0,1.3,0,2.6,0,3.9,0,.69.21,1,.94,1,2,0,4,0,5.95,0,.73,0,1-.34,1-1,0-1.57,0-3.13,0-4.69,0-.8.27-1.09,1.08-1.07,2.09.06,1.9-.22,1.91,1.88Z" transform="translate(-5.68 -32.6)"/><path d="M70.17,48.57c-1.29.37-1.82-.25-2.25-1.35-1.76-4.41-3.6-8.77-5.42-13.15-.53-1.28-.41-1.44,1-1.45a6.46,6.46,0,0,0,.88,0c.71-.1,1,.24,1.27.89q1.85,4.88,3.77,9.71a4.5,4.5,0,0,0,.65.89,3.85,3.85,0,0,0,.74-.9c1.27-3.17,2.52-6.34,3.71-9.53a1.38,1.38,0,0,1,1.55-1.08c2.25.06,2.25,0,1.4,2.08C75.73,38.86,74,43,72.3,47.2,71.88,48.27,71.43,49,70.17,48.57Z" transform="translate(-5.68 -32.6)"/><path d="M12.25,32.62c1.85,0,3.71,0,5.56,0,.78,0,1.08.28,1,1a6.32,6.32,0,0,0,0,.87c0,.58-.22.83-.81.82-1,0-1.95,0-2.93,0-1.31,0-1.34,0-1.34,1.4,0,3.58,0,7.16,0,10.74,0,.92-.31,1.25-1.19,1.15a3.39,3.39,0,0,0-.78,0c-.78.08-1-.29-1-1,0-3.61,0-7.22,0-10.84,0-1.33-.1-1.42-1.46-1.42-.91,0-1.82,0-2.73,0-.7,0-.89-.26-.9-.91,0-1.81-.06-1.81,1.77-1.81Z" transform="translate(-5.68 -32.6)"/></svg>